<svg width="100" height="100" viewBox="0 0 100 100" fill="none" xmlns="http://www.w3.org/2000/svg">
<g clip-path="url(#clip0_8_114)">
<path d="M79.1666 86.4583L69.5416 48.9583C73.1002 44.5307 75.0275 39.0137 75 33.3333C75 26.7029 72.3661 20.3441 67.6776 15.6557C62.9892 10.9673 56.6304 8.33334 50 8.33334C43.3696 8.33334 37.0107 10.9673 32.3223 15.6557C27.6339 20.3441 25 26.7029 25 33.3333C24.9886 39.0576 26.9617 44.6088 30.5833 49.0417L20.8333 86.4583C20.6259 87.2581 20.6609 88.1014 20.934 88.8811C21.207 89.6609 21.7056 90.3419 22.3666 90.8376C23.0275 91.3333 23.8209 91.6213 24.6459 91.6651C25.4709 91.7089 26.2903 91.5064 27 91.0833L49.2083 78.0417L72.875 91.125C73.5145 91.5109 74.2537 91.6994 75 91.6667C75.647 91.6873 76.2898 91.5569 76.8777 91.2859C77.4655 91.0148 77.9821 90.6105 78.3864 90.105C78.7908 89.5996 79.0719 89.0068 79.2073 88.3738C79.3427 87.7408 79.3288 87.085 79.1666 86.4583ZM50 16.6667C53.2963 16.6667 56.5187 17.6442 59.2595 19.4755C62.0003 21.3069 64.1365 23.9099 65.398 26.9553C66.6594 30.0007 66.9895 33.3518 66.3464 36.5848C65.7033 39.8179 64.116 42.7876 61.7851 45.1185C59.4542 47.4493 56.4845 49.0367 53.2515 49.6798C50.0185 50.3229 46.6673 49.9928 43.6219 48.7313C40.5765 47.4699 37.9735 45.3337 36.1421 42.5928C34.3108 39.852 33.3333 36.6297 33.3333 33.3333C33.3333 28.9131 35.0893 24.6738 38.2149 21.5482C41.3405 18.4226 45.5797 16.6667 50 16.6667ZM51.2916 69.625C50.6582 69.2593 49.9397 69.0668 49.2083 69.0668C48.4769 69.0668 47.7584 69.2593 47.125 69.625L31.5 78.7917L37.5 55.0417C41.2525 57.1985 45.5051 58.3335 49.8333 58.3335C54.1615 58.3335 58.4141 57.1985 62.1666 55.0417L68.5416 79.1667L51.2916 69.625Z" fill="#FFA1AD"/>
</g>
<defs>
<clipPath id="clip0_8_114">
<rect width="100" height="100" fill="white"/>
</clipPath>
</defs>
</svg>
