<svg width="20" height="21" viewBox="0 0 20 21" fill="none" xmlns="http://www.w3.org/2000/svg">
<g clip-path="url(#clip0_42_90)">
<path d="M17.5666 6.12499C17.4226 5.86304 17.2164 5.64473 16.9682 5.49138C16.7199 5.33803 16.438 5.25486 16.15 5.24999H5.48329L4.99996 3.27249C4.95113 3.0816 4.84218 2.9137 4.69086 2.79612C4.53954 2.67854 4.35476 2.61823 4.16663 2.62499H2.49996C2.27895 2.62499 2.06698 2.71718 1.9107 2.88128C1.75442 3.04537 1.66663 3.26793 1.66663 3.49999C1.66663 3.73206 1.75442 3.95462 1.9107 4.11871C2.06698 4.28281 2.27895 4.37499 2.49996 4.37499H3.53329L5.83329 13.3525C5.88213 13.5434 5.99108 13.7113 6.1424 13.8289C6.29372 13.9464 6.47849 14.0068 6.66663 14H14.1666C14.3205 13.9995 14.4713 13.9543 14.6022 13.8693C14.7331 13.7844 14.839 13.663 14.9083 13.5187L17.6416 7.77874C17.7601 7.51801 17.8153 7.23053 17.8022 6.94197C17.7891 6.6534 17.7082 6.37273 17.5666 6.12499ZM13.65 12.25H7.29996L5.94163 6.99999H16.15L13.65 12.25Z" fill="black"/>
<path d="M6.25 18.375C6.94036 18.375 7.5 17.7874 7.5 17.0625C7.5 16.3376 6.94036 15.75 6.25 15.75C5.55964 15.75 5 16.3376 5 17.0625C5 17.7874 5.55964 18.375 6.25 18.375Z" fill="black"/>
<path d="M14.5834 18.375C15.2737 18.375 15.8334 17.7874 15.8334 17.0625C15.8334 16.3376 15.2737 15.75 14.5834 15.75C13.893 15.75 13.3334 16.3376 13.3334 17.0625C13.3334 17.7874 13.893 18.375 14.5834 18.375Z" fill="black"/>
</g>
<defs>
<clipPath id="clip0_42_90">
<rect width="20" height="21" fill="white"/>
</clipPath>
</defs>
</svg>
