<svg width="100" height="100" viewBox="0 0 100 100" fill="none" xmlns="http://www.w3.org/2000/svg">
<path d="M80 29.1667H78.375C78.8743 27.833 79.1421 26.4238 79.1667 25C79.0793 21.6108 77.6543 18.3938 75.2029 16.0518C72.7516 13.7097 69.473 12.4328 66.0833 12.5C62.7522 12.5719 59.5017 13.5381 56.6722 15.2974C53.8427 17.0567 51.5382 19.5444 50 22.5C48.4618 19.5444 46.1574 17.0567 43.3278 15.2974C40.4983 13.5381 37.2478 12.5719 33.9167 12.5C30.527 12.4328 27.2485 13.7097 24.7971 16.0518C22.3457 18.3938 20.9207 21.6108 20.8333 25C20.858 26.4238 21.1257 27.833 21.625 29.1667H20C18.9036 29.2708 17.8387 29.5912 16.8668 30.1094C15.895 30.6276 15.0355 31.3333 14.3381 32.1857C13.6407 33.0381 13.1191 34.0203 12.8036 35.0755C12.4881 36.1307 12.3849 37.238 12.5 38.3333V53.3333C12.3054 55.351 12.8241 57.373 13.966 59.0478C15.1079 60.7226 16.8007 61.9441 18.75 62.5V80.7083C18.8786 82.5982 19.7377 84.3639 21.1453 85.6316C22.553 86.8992 24.3987 87.5693 26.2917 87.5H73.7083C75.6286 87.5678 77.4981 86.8749 78.9103 85.5719C80.3225 84.269 81.1634 82.4612 81.25 80.5416V62.5C83.1993 61.9441 84.8921 60.7226 86.034 59.0478C87.1759 57.373 87.6947 55.351 87.5 53.3333V38.3333C87.6151 37.238 87.5119 36.1307 87.1964 35.0755C86.8809 34.0203 86.3594 33.0381 85.6619 32.1857C84.9645 31.3333 84.105 30.6276 83.1332 30.1094C82.1614 29.5912 81.0964 29.2708 80 29.1667ZM79.1667 38.3333V53.3333C79.2167 53.6088 79.2167 53.8911 79.1667 54.1667H54.1667V37.5H79.1667C79.2167 37.7755 79.2167 38.0578 79.1667 38.3333ZM66.0833 20.8333C67.2637 20.7645 68.4237 21.1631 69.3126 21.9428C70.2015 22.7225 70.7478 23.8207 70.8333 25C70.7478 26.1793 70.2015 27.2775 69.3126 28.0572C68.4237 28.8369 67.2637 29.2354 66.0833 29.1667H55.8333C56.5624 26.9407 57.9164 24.9715 59.7339 23.4939C61.5513 22.0163 63.7554 21.0927 66.0833 20.8333ZM29.1667 25C29.2523 23.8207 29.7985 22.7225 30.6874 21.9428C31.5763 21.1631 32.7363 20.7645 33.9167 20.8333C36.2372 21.1003 38.4323 22.0273 40.2418 23.5044C42.0512 24.9814 43.3989 26.9466 44.125 29.1667H33.9167C32.7363 29.2354 31.5763 28.8369 30.6874 28.0572C29.7985 27.2775 29.2523 26.1793 29.1667 25ZM20.8333 38.3333C20.7833 38.0578 20.7833 37.7755 20.8333 37.5H45.8333V54.1667H20.8333C20.7833 53.8911 20.7833 53.6088 20.8333 53.3333V38.3333ZM27.0833 62.5H45.8333V79.1666H27.0833V62.5ZM54.1667 79.1666V62.5H72.9167V79.1666H54.1667Z" fill="#FFA1AD"/>
</svg>
