<svg width="24" height="24" viewBox="0 0 24 24" fill="none" xmlns="http://www.w3.org/2000/svg">
<g clip-path="url(#clip0_72_268)">
<path d="M20.55 13H4.45C3.92533 13 3.5 13.4253 3.5 13.95V14.05C3.5 14.5747 3.92533 15 4.45 15H20.55C21.0747 15 21.5 14.5747 21.5 14.05V13.95C21.5 13.4253 21.0747 13 20.55 13Z" fill="black"/>
<path d="M20.55 18H4.45C3.92533 18 3.5 18.4253 3.5 18.95V19.05C3.5 19.5747 3.92533 20 4.45 20H20.55C21.0747 20 21.5 19.5747 21.5 19.05V18.95C21.5 18.4253 21.0747 18 20.55 18Z" fill="black"/>
<path d="M20.55 8H4.45C3.92533 8 3.5 8.42533 3.5 8.95V9.05C3.5 9.57467 3.92533 10 4.45 10H20.55C21.0747 10 21.5 9.57467 21.5 9.05V8.95C21.5 8.42533 21.0747 8 20.55 8Z" fill="black"/>
</g>
<defs>
<clipPath id="clip0_72_268">
<rect width="24" height="24" fill="white"/>
</clipPath>
</defs>
</svg>
