<svg width="100" height="100" viewBox="0 0 100 100" fill="none" xmlns="http://www.w3.org/2000/svg">
<g clip-path="url(#clip0_7_67)">
<path d="M81.4167 21.1667C77.239 17.0184 72.2748 13.7464 66.8155 11.5427C61.3562 9.33892 55.5117 8.2478 49.625 8.33334C38.5743 8.30572 27.9653 12.6691 20.1317 20.4636C12.2982 28.258 7.88179 38.8452 7.85416 49.8958C7.82654 60.9465 12.1899 71.5556 19.9844 79.3891C27.7789 87.2227 38.366 91.639 49.4167 91.6667C51.7979 91.7072 54.1252 90.9558 56.0331 89.5305C57.9411 88.1051 59.3217 86.0866 59.9583 83.7917C60.3641 82.1344 60.3599 80.4032 59.9461 78.7479C59.5323 77.0926 58.7213 75.563 57.5833 74.2917C57.3202 73.9922 57.1485 73.6236 57.0887 73.2295C57.0288 72.8354 57.0832 72.4324 57.2455 72.0683C57.4078 71.7042 57.6712 71.3943 58.0043 71.1754C58.3375 70.9565 58.7264 70.8378 59.125 70.8333H66C72.4706 70.8636 78.7131 68.4448 83.474 64.0626C88.2349 59.6804 91.1617 53.6593 91.6667 47.2083C91.8217 42.3984 90.9925 37.6075 89.2299 33.1294C87.4673 28.6514 84.8086 24.5806 81.4167 21.1667ZM66.1667 62.5H59.2917C57.2839 62.4886 55.3159 63.0601 53.6265 64.1451C51.937 65.2301 50.5987 66.782 49.7739 68.6126C48.949 70.4431 48.673 72.4737 48.9794 74.4581C49.2858 76.4424 50.1614 78.2951 51.5 79.7917C51.7606 80.0547 51.9449 80.3836 52.0329 80.7432C52.121 81.1029 52.1096 81.4797 52 81.8333C51.7917 82.7083 50.8333 83.25 49.5417 83.3333C44.8097 83.2727 40.1448 82.2051 35.8574 80.2017C31.57 78.1983 27.7584 75.3049 24.676 71.7141C21.5936 68.1232 19.3112 63.9172 17.9805 59.3757C16.6498 54.8343 16.3013 50.0616 16.9583 45.375C18.1465 37.4998 22.0815 30.2985 28.0672 25.0447C34.053 19.791 41.7038 16.8234 49.6667 16.6667H50C54.7118 16.605 59.3883 17.4875 63.7536 19.2623C68.1189 21.037 72.0846 23.668 75.4167 27C78.0167 29.6017 80.0595 32.7057 81.4206 36.1227C82.7817 39.5397 83.4325 43.1982 83.3333 46.875C82.9019 51.1378 80.9107 55.0908 77.7421 57.9748C74.5735 60.8588 70.4511 62.4704 66.1667 62.5Z" fill="#FFA1AD"/>
<path d="M50 33.3333C53.4518 33.3333 56.25 30.5351 56.25 27.0833C56.25 23.6316 53.4518 20.8333 50 20.8333C46.5482 20.8333 43.75 23.6316 43.75 27.0833C43.75 30.5351 46.5482 33.3333 50 33.3333Z" fill="#FFA1AD"/>
<path d="M63.5417 30C62.4715 30.6182 61.6087 31.5397 61.0622 32.6482C60.5157 33.7566 60.3101 35.0022 60.4714 36.2275C60.6326 37.4527 61.1535 38.6027 61.9682 39.532C62.7829 40.4613 63.8548 41.1282 65.0484 41.4484C66.242 41.7687 67.5038 41.7279 68.6742 41.3312C69.8447 40.9345 70.8712 40.1997 71.6241 39.2197C72.377 38.2396 72.8225 37.0584 72.9043 35.8253C72.986 34.5922 72.7003 33.3625 72.0833 32.2917C71.6733 31.58 71.127 30.9561 70.4757 30.4557C69.8244 29.9554 69.0808 29.5882 68.2875 29.3754C67.4942 29.1626 66.6667 29.1082 65.8524 29.2154C65.0381 29.3225 64.2529 29.5892 63.5417 30Z" fill="#FFA1AD"/>
<path d="M36.4583 30C35.3875 29.383 34.1578 29.0974 32.9247 29.1791C31.6916 29.2608 30.5104 29.7063 29.5304 30.4592C28.5503 31.2121 27.8155 32.2387 27.4188 33.4091C27.0221 34.5796 26.9813 35.8413 27.3016 37.035C27.6218 38.2286 28.2887 39.3005 29.218 40.1152C30.1473 40.9298 31.2973 41.4507 32.5225 41.612C33.7478 41.7732 34.9934 41.5676 36.1018 41.0211C37.2103 40.4746 38.1318 39.6118 38.75 38.5417C39.1608 37.8305 39.4275 37.0453 39.5346 36.2309C39.6418 35.4166 39.5874 34.5891 39.3746 33.7959C39.1618 33.0026 38.7946 32.259 38.2943 31.6077C37.7939 30.9564 37.17 30.4101 36.4583 30Z" fill="#FFA1AD"/>
<path d="M25.6667 46.9167C24.6415 47.6088 23.8448 48.5897 23.3775 49.7349C22.9101 50.8801 22.7931 52.1383 23.0412 53.3501C23.2893 54.5619 23.8914 55.6728 24.7712 56.5422C25.6511 57.4116 26.7692 58.0004 27.9838 58.234C29.1985 58.4676 30.4552 58.3355 31.5948 57.8544C32.7343 57.3734 33.7055 56.565 34.3854 55.5317C35.0653 54.4983 35.4232 53.2865 35.414 52.0496C35.4047 50.8127 35.0286 49.6064 34.3333 48.5833C33.8766 47.9014 33.2891 47.3169 32.605 46.8635C31.9209 46.4101 31.1537 46.0968 30.3477 45.9418C29.5418 45.7869 28.7131 45.7932 27.9096 45.9605C27.1061 46.1279 26.3438 46.4528 25.6667 46.9167Z" fill="#FFA1AD"/>
</g>
<defs>
<clipPath id="clip0_7_67">
<rect width="100" height="100" fill="white"/>
</clipPath>
</defs>
</svg>
